# Blender v2.82 (sub 7) OBJ File: 'Tile.blend'
# www.blender.org
mtllib ceiling tile vent.mtl
o tile_Cube
v -0.500000 -0.025000 0.500000
v -0.500000 0.025000 0.500000
v -0.500000 -0.025000 -0.500000
v -0.500000 0.025000 -0.500000
v 0.500000 -0.025000 0.500000
v 0.500000 0.025000 0.500000
v 0.500000 -0.025000 -0.500000
v 0.500000 0.025000 -0.500000
v 0.498322 -0.025000 -0.500000
v -0.498322 -0.025000 -0.500000
v -0.498322 0.025000 -0.500000
v 0.498322 0.025000 -0.500000
v -0.498322 -0.025000 0.500000
v 0.498322 -0.025000 0.500000
v 0.498322 0.025000 0.500000
v -0.498322 0.025000 0.500000
v -0.500000 -0.025000 -0.498724
v -0.500000 -0.025000 0.498724
v -0.500000 0.025000 0.498724
v -0.500000 0.025000 -0.498724
v 0.500000 -0.025000 0.498724
v 0.500000 -0.025000 -0.498724
v 0.500000 0.025000 -0.498724
v 0.500000 0.025000 0.498724
v 0.498322 0.025000 -0.498724
v 0.498322 0.025000 0.498724
v -0.498322 0.025000 -0.498724
v -0.498322 0.025000 0.498724
v -0.498322 -0.025000 -0.498724
v -0.498322 -0.025000 0.498724
v 0.498322 -0.025000 -0.498724
v 0.498322 -0.025000 0.498724
v -0.500000 -0.025000 0.000000
v -0.500000 0.025000 0.000000
v 0.500000 -0.025000 0.000000
v 0.500000 0.025000 0.000000
v 0.498322 0.025000 0.000000
v -0.498322 0.025000 0.000000
v -0.498322 -0.025000 0.000000
v 0.498322 -0.025000 0.000000
v 0.000000 -0.025000 -0.500000
v 0.000000 0.025000 -0.500000
v 0.000000 -0.025000 0.500000
v 0.000000 0.025000 0.500000
v 0.000000 -0.025000 -0.498724
v 0.000000 -0.025000 0.498724
v 0.000000 0.025000 -0.498724
v 0.000000 0.025000 0.498724
v 0.000000 0.025000 0.000000
v 0.000000 -0.025000 0.000000
v -0.500000 0.025000 -0.250812
v 0.500000 -0.025000 -0.250812
v -0.500000 -0.025000 -0.250812
v 0.500000 0.025000 -0.250812
v 0.498322 0.025000 -0.250812
v -0.498322 0.025000 -0.250812
v -0.498322 -0.025000 -0.250812
v 0.498322 -0.025000 -0.250812
v 0.000000 -0.025000 -0.250812
v 0.000000 0.025000 -0.250812
v -0.500000 -0.025000 0.249362
v 0.500000 0.025000 0.249362
v 0.498322 0.025000 0.249362
v -0.498322 0.025000 0.249362
v -0.498322 -0.025000 0.249362
v 0.498322 -0.025000 0.249362
v -0.500000 0.025000 0.249362
v 0.500000 -0.025000 0.249362
v 0.000000 0.025000 0.249362
v 0.000000 -0.025000 0.249362
v -0.247252 -0.025000 -0.500000
v -0.247252 0.025000 0.500000
v -0.247252 -0.025000 -0.498724
v -0.247252 -0.025000 0.498724
v -0.247252 -0.025000 0.000000
v -0.247252 0.025000 -0.500000
v -0.247252 -0.025000 0.500000
v -0.247252 0.025000 -0.498724
v -0.247252 0.025000 0.498724
v -0.247252 0.025000 0.000000
v -0.247252 -0.025000 -0.250812
v -0.247252 0.025000 -0.250812
v -0.247252 -0.025000 0.249362
v -0.247252 0.025000 0.249362
v 0.247252 0.025000 -0.500000
v 0.247252 -0.025000 0.500000
v 0.247252 0.025000 -0.498724
v 0.247252 0.025000 0.498724
v 0.247252 0.025000 0.000000
v 0.247252 -0.025000 -0.500000
v 0.247252 0.025000 0.500000
v 0.247252 -0.025000 -0.498724
v 0.247252 -0.025000 0.498724
v 0.247252 -0.025000 0.000000
v 0.247252 0.025000 -0.250812
v 0.247252 -0.025000 -0.250812
v 0.247252 0.025000 0.249362
v 0.247252 -0.025000 0.249362
v -0.372787 -0.025000 -0.500000
v -0.372787 0.025000 0.500000
v -0.372787 -0.025000 -0.498724
v -0.372787 -0.025000 0.498724
v -0.372787 -0.025000 0.000000
v -0.372787 -0.025000 -0.250812
v -0.372787 -0.025000 0.249362
v -0.372787 0.025000 -0.500000
v -0.372787 -0.025000 0.500000
v -0.372787 0.025000 -0.498724
v -0.372787 0.025000 0.498724
v -0.372787 0.025000 0.000000
v -0.372787 0.025000 -0.250812
v -0.372787 0.025000 0.249362
v -0.500000 -0.025000 0.374043
v 0.500000 0.025000 0.374043
v 0.498322 0.025000 0.374043
v -0.498322 0.025000 0.374043
v -0.498322 -0.025000 0.374043
v 0.498322 -0.025000 0.374043
v 0.000000 0.025000 0.374043
v 0.000000 -0.025000 0.374043
v -0.500000 0.025000 0.374043
v 0.500000 -0.025000 0.374043
v -0.247252 -0.025000 0.374043
v -0.247252 0.025000 0.374043
v 0.247252 0.025000 0.374043
v 0.247252 -0.025000 0.374043
v -0.372787 -0.025000 0.374043
v -0.372787 0.025000 0.374043
v -0.500000 0.025000 0.124681
v 0.500000 -0.025000 0.124681
v -0.500000 -0.025000 0.124681
v 0.500000 0.025000 0.124681
v 0.498322 0.025000 0.124681
v -0.498322 0.025000 0.124681
v -0.498322 -0.025000 0.124681
v 0.498322 -0.025000 0.124681
v 0.000000 0.025000 0.124681
v 0.000000 -0.025000 0.124681
v -0.247252 0.025000 0.124681
v -0.247252 -0.025000 0.124681
v 0.247252 -0.025000 0.124681
v 0.247252 0.025000 0.124681
v -0.372787 -0.025000 0.124681
v -0.372787 0.025000 0.124681
v -0.500000 -0.025000 -0.128107
v 0.500000 0.025000 -0.128107
v 0.498322 0.025000 -0.128107
v -0.498322 0.025000 -0.128107
v -0.498322 -0.025000 -0.128107
v 0.498322 -0.025000 -0.128107
v 0.000000 -0.025000 -0.128107
v 0.000000 0.025000 -0.128107
v -0.500000 0.025000 -0.128107
v 0.500000 -0.025000 -0.128107
v -0.247252 -0.025000 -0.128107
v -0.247252 0.025000 -0.128107
v 0.247252 0.025000 -0.128107
v 0.247252 -0.025000 -0.128107
v -0.372787 -0.025000 -0.128107
v -0.372787 0.025000 -0.128107
v -0.500000 0.025000 -0.375367
v 0.500000 -0.025000 -0.375367
v -0.500000 -0.025000 -0.375367
v 0.500000 0.025000 -0.375367
v 0.498322 0.025000 -0.375367
v -0.498322 0.025000 -0.375367
v -0.498322 -0.025000 -0.375367
v 0.498322 -0.025000 -0.375367
v 0.000000 -0.025000 -0.375367
v 0.000000 0.025000 -0.375367
v -0.247252 0.025000 -0.375367
v -0.247252 -0.025000 -0.375367
v 0.247252 -0.025000 -0.375367
v 0.247252 0.025000 -0.375367
v -0.372787 -0.025000 -0.375367
v -0.372787 0.025000 -0.375367
v -0.123626 0.025000 -0.500000
v -0.123626 -0.025000 0.500000
v -0.123626 0.025000 -0.498724
v -0.123626 0.025000 0.498724
v -0.123626 0.025000 0.000000
v -0.123626 0.025000 -0.250812
v -0.123626 0.025000 0.249362
v -0.123626 -0.025000 -0.500000
v -0.123626 0.025000 0.500000
v -0.123626 -0.025000 -0.498724
v -0.123626 -0.025000 0.498724
v -0.123626 -0.025000 0.000000
v -0.123626 -0.025000 -0.250812
v -0.123626 -0.025000 0.249362
v -0.123626 0.025000 0.374043
v -0.123626 -0.025000 0.374043
v -0.123626 0.025000 0.124681
v -0.123626 -0.025000 0.124681
v -0.123626 0.025000 -0.128107
v -0.123626 -0.025000 -0.128107
v -0.123626 0.025000 -0.375367
v -0.123626 -0.025000 -0.375367
v 0.123626 -0.025000 -0.500000
v 0.123626 0.025000 0.500000
v 0.123626 -0.025000 -0.498724
v 0.123626 -0.025000 0.498724
v 0.123626 -0.025000 0.000000
v 0.123626 -0.025000 -0.250812
v 0.123626 -0.025000 0.249362
v 0.123626 0.025000 -0.500000
v 0.123626 -0.025000 0.500000
v 0.123626 0.025000 -0.498724
v 0.123626 0.025000 0.498724
v 0.123626 0.025000 0.000000
v 0.123626 0.025000 -0.250812
v 0.123626 0.025000 0.249362
v 0.123626 -0.025000 0.374043
v 0.123626 0.025000 0.374043
v 0.123626 -0.025000 0.124681
v 0.123626 0.025000 0.124681
v 0.123626 -0.025000 -0.128107
v 0.123626 0.025000 -0.128107
v 0.123626 -0.025000 -0.375367
v 0.123626 0.025000 -0.375367
v 0.373295 0.025000 -0.500000
v 0.373295 -0.025000 0.500000
v 0.373295 0.025000 -0.498724
v 0.373295 0.025000 0.498724
v 0.373295 0.025000 0.000000
v 0.373295 0.025000 -0.250812
v 0.373295 0.025000 0.249362
v 0.373295 -0.025000 -0.500000
v 0.373295 0.025000 0.500000
v 0.373295 -0.025000 -0.498724
v 0.373295 -0.025000 0.498724
v 0.373295 -0.025000 0.000000
v 0.373295 -0.025000 -0.250812
v 0.373295 -0.025000 0.249362
v 0.373295 0.025000 0.374043
v 0.373295 -0.025000 0.374043
v 0.373295 0.025000 0.124681
v 0.373295 -0.025000 0.124681
v 0.373295 0.025000 -0.128107
v 0.373295 -0.025000 -0.128107
v 0.373295 0.025000 -0.375367
v 0.373295 -0.025000 -0.375367
vt 0.000000 0.998724
vt 0.000000 0.998724
vt 0.000000 1.000000
vt 0.000000 1.000000
vt 0.998322 1.000000
vt 0.998322 1.000000
vt 1.000000 1.000000
vt 1.000000 1.000000
vt 1.000000 0.001276
vt 1.000000 0.001276
vt 1.000000 0.000000
vt 1.000000 0.000000
vt 0.001678 0.000000
vt 0.001678 0.000000
vt 0.000000 0.000000
vt 0.000000 0.000000
vt 0.998322 0.001276
vt 0.998322 0.000000
vt 0.001678 0.001276
vt 0.000000 0.001276
vt 0.998322 0.001276
vt 0.998322 0.000000
vt 0.127213 0.001276
vt 0.127213 0.000000
vt 0.000000 0.001276
vt 0.001678 0.001276
vt 0.873295 0.001276
vt 0.873295 -0.000000
vt 0.127213 0.000000
vt 0.001678 1.000000
vt 0.001678 1.000000
vt 0.873295 1.000000
vt 0.873295 1.000000
vt 0.998322 0.998724
vt 0.873295 0.998724
vt 0.873295 0.125957
vt 0.998322 0.125957
vt 0.001678 0.998724
vt 0.000000 0.125957
vt 0.001678 0.125957
vt 0.127213 1.000000
vt 0.001678 0.998724
vt 0.127213 0.998724
vt 0.127213 0.125957
vt 0.001678 0.125957
vt 0.998322 0.998724
vt 1.000000 0.998724
vt 1.000000 0.125957
vt 0.998322 0.125957
vt 0.000000 0.125957
vt 1.000000 0.998724
vt 1.000000 0.125957
vt 0.000000 0.875367
vt 0.000000 0.875367
vt 0.000000 0.375319
vt 0.000000 0.375319
vt 0.000000 0.500000
vt 0.000000 0.500000
vt 1.000000 0.628107
vt 1.000000 0.628107
vt 1.000000 0.500000
vt 1.000000 0.500000
vt 0.998322 0.628107
vt 0.998322 0.500000
vt 0.001678 0.628107
vt -0.000000 0.628107
vt 0.001678 0.500000
vt 0.998322 0.628107
vt 0.998322 0.500000
vt 0.127213 0.628107
vt 0.127213 0.500000
vt -0.000000 0.628107
vt 0.001678 0.628107
vt 0.001678 0.500000
vt 0.873295 0.628107
vt 0.873295 0.500000
vt 0.376374 0.628107
vt 0.500000 0.628107
vt 0.500000 0.500000
vt 0.376374 0.500000
vt 0.623626 0.628107
vt 0.500000 0.628107
vt 0.500000 0.500000
vt 0.623626 0.500000
vt 0.623626 0.125957
vt 0.500000 0.125957
vt 0.500000 0.001276
vt 0.623626 0.001276
vt 0.623626 1.000000
vt 0.500000 1.000000
vt 0.500000 0.998724
vt 0.623626 0.998724
vt 0.376374 0.125957
vt 0.500000 0.125957
vt 0.500000 0.001276
vt 0.376374 0.001276
vt 0.376374 1.000000
vt 0.500000 1.000000
vt 0.500000 0.998724
vt 0.376374 0.998724
vt 0.376374 1.000000
vt 0.623626 0.000000
vt 0.623626 0.000000
vt 0.500000 0.000000
vt 0.500000 0.000000
vt 0.376374 0.000000
vt 0.623626 0.875367
vt 0.500000 0.875367
vt 0.500000 0.750812
vt 0.623626 0.750812
vt 0.376374 0.875367
vt 0.500000 0.875367
vt 0.500000 0.750812
vt 0.376374 0.750812
vt 0.873295 0.875367
vt 0.998322 0.875367
vt 0.998322 0.750812
vt 0.873295 0.750812
vt 0.001678 0.875367
vt 0.001678 0.750812
vt 0.000000 0.750812
vt 0.127213 0.875367
vt 0.001678 0.875367
vt 0.001678 0.750812
vt 0.127213 0.750812
vt 1.000000 0.875367
vt 0.998322 0.875367
vt 0.998322 0.750812
vt 1.000000 0.750812
vt 0.000000 0.750812
vt 1.000000 0.875367
vt 1.000000 0.750812
vt 0.376374 0.375319
vt 0.500000 0.375319
vt 0.500000 0.250638
vt 0.376374 0.250638
vt 0.623626 0.375319
vt 0.500000 0.375319
vt 0.500000 0.250638
vt 0.623626 0.250638
vt 0.000000 0.250638
vt 0.000000 0.250638
vt 1.000000 0.375319
vt 1.000000 0.375319
vt 1.000000 0.250638
vt 1.000000 0.250638
vt 0.998322 0.375319
vt 0.998322 0.250638
vt 0.001678 0.375319
vt 0.001678 0.250638
vt 0.998322 0.375319
vt 0.998322 0.250638
vt 0.127213 0.375319
vt 0.127213 0.250638
vt 0.001678 0.375319
vt 0.001678 0.250638
vt 0.873295 0.375319
vt 0.873295 0.250638
vt 0.376374 0.375319
vt 0.252749 0.375319
vt 0.252749 0.250638
vt 0.376374 0.250638
vt 0.127213 0.375319
vt 0.252749 0.375319
vt 0.252749 0.250638
vt 0.127213 0.250638
vt 0.376374 0.875367
vt 0.252749 0.875367
vt 0.252749 0.750812
vt 0.376374 0.750812
vt 0.127213 0.875367
vt 0.252749 0.875367
vt 0.252749 0.750812
vt 0.127213 0.750812
vt 0.127213 0.001276
vt 0.252749 0.001276
vt 0.252749 0.000000
vt 0.127213 1.000000
vt 0.252749 1.000000
vt 0.252749 1.000000
vt 0.252749 0.998724
vt 0.127213 0.998724
vt 0.127213 0.125957
vt 0.252749 0.125957
vt 0.127213 0.628107
vt 0.252749 0.628107
vt 0.252749 0.500000
vt 0.127213 0.500000
vt 0.376374 0.628107
vt 0.252749 0.628107
vt 0.252749 0.500000
vt 0.376374 0.500000
vt 0.376374 0.125957
vt 0.252749 0.125957
vt 0.252749 0.001276
vt 0.376374 0.001276
vt 0.252749 0.998724
vt 0.376374 0.998724
vt 0.376374 0.000000
vt 0.252749 0.000000
vt 0.623626 0.375319
vt 0.747251 0.375319
vt 0.747251 0.250638
vt 0.623626 0.250638
vt 0.873295 0.375319
vt 0.747251 0.375319
vt 0.747251 0.250638
vt 0.873295 0.250638
vt 0.623626 0.875367
vt 0.747251 0.875367
vt 0.747251 0.750812
vt 0.623626 0.750812
vt 0.873295 0.875367
vt 0.747251 0.875367
vt 0.747251 0.750812
vt 0.873295 0.750812
vt 0.873295 0.001276
vt 0.747251 0.001276
vt 0.747251 0.000000
vt 0.873295 -0.000000
vt 0.747251 0.000000
vt 0.747251 1.000000
vt 0.747251 0.998724
vt 0.873295 0.998724
vt 0.873295 0.125957
vt 0.747251 0.125957
vt 0.873295 0.628107
vt 0.747251 0.628107
vt 0.747251 0.500000
vt 0.873295 0.500000
vt 0.623626 0.628107
vt 0.747251 0.628107
vt 0.747251 0.500000
vt 0.623626 0.500000
vt 0.623626 0.125957
vt 0.747251 0.125957
vt 0.747251 0.001276
vt 0.623626 0.001276
vt 0.623626 1.000000
vt 0.747251 1.000000
vt 0.747251 0.998724
vt 0.623626 0.998724
vn -1.0000 0.0000 0.0000
vn 0.0000 0.0000 -1.0000
vn 1.0000 0.0000 0.0000
vn 0.0000 0.0000 1.0000
vn 0.0000 -1.0000 0.0000
vn 0.0000 1.0000 0.0000
usemtl None
s off
f 17/1/1 20/2/1 4/3/1 3/4/1
f 9/5/2 12/6/2 8/7/2 7/8/2
f 21/9/3 24/10/3 6/11/3 5/12/3
f 13/13/4 16/14/4 2/15/4 1/16/4
f 32/17/5 21/9/5 5/12/5 14/18/5
f 28/19/6 19/20/6 2/15/6 16/14/6
f 24/10/6 26/21/6 15/22/6 6/11/6
f 109/23/6 28/19/6 16/14/6 100/24/6
f 18/25/5 30/26/5 13/13/5 1/16/5
f 231/27/5 32/17/5 14/18/5 222/28/5
f 5/12/4 6/11/4 15/22/4 14/18/4
f 107/29/4 100/24/4 16/14/4 13/13/4
f 3/4/2 4/3/2 11/30/2 10/31/2
f 228/32/2 221/33/2 12/6/2 9/5/2
f 228/32/5 9/5/5 31/34/5 230/35/5
f 236/36/5 118/37/5 32/17/5 231/27/5
f 3/4/5 10/31/5 29/38/5 17/1/5
f 113/39/5 117/40/5 30/26/5 18/25/5
f 106/41/6 11/30/6 27/42/6 108/43/6
f 128/44/6 116/45/6 28/19/6 109/23/6
f 8/7/6 12/6/6 25/46/6 23/47/6
f 114/48/6 115/49/6 26/21/6 24/10/6
f 11/30/6 4/3/6 20/2/6 27/42/6
f 116/45/6 121/50/6 19/20/6 28/19/6
f 9/5/5 7/8/5 22/51/5 31/34/5
f 118/37/5 122/52/5 21/9/5 32/17/5
f 7/8/3 8/7/3 23/47/3 22/51/3
f 122/52/3 114/48/3 24/10/3 21/9/3
f 1/16/1 2/15/1 19/20/1 18/25/1
f 163/53/1 161/54/1 20/2/1 17/1/1
f 131/55/1 129/56/1 34/57/1 33/58/1
f 154/59/3 146/60/3 36/61/3 35/62/3
f 150/63/5 154/59/5 35/62/5 40/64/5
f 148/65/6 153/66/6 34/57/6 38/67/6
f 146/60/6 147/68/6 37/69/6 36/61/6
f 160/70/6 148/65/6 38/67/6 110/71/6
f 145/72/5 149/73/5 39/74/5 33/58/5
f 240/75/5 150/63/5 40/64/5 232/76/5
f 196/77/5 151/78/5 50/79/5 188/80/5
f 218/81/6 152/82/6 49/83/6 210/84/6
f 214/85/6 119/86/6 48/87/6 209/88/6
f 206/89/6 42/90/6 47/91/6 208/92/6
f 192/93/5 120/94/5 46/95/5 187/96/5
f 184/97/5 41/98/5 45/99/5 186/100/5
f 184/97/2 177/101/2 42/90/2 41/98/2
f 207/102/4 200/103/4 44/104/4 43/105/4
f 187/96/5 46/95/5 43/105/5 178/106/5
f 209/88/6 48/87/6 44/104/6 200/103/6
f 220/107/6 170/108/6 60/109/6 211/110/6
f 198/111/5 169/112/5 59/113/5 189/114/5
f 242/115/5 168/116/5 58/117/5 233/118/5
f 163/53/5 167/119/5 57/120/5 53/121/5
f 176/122/6 166/123/6 56/124/6 111/125/6
f 164/126/6 165/127/6 55/128/6 54/129/6
f 166/123/6 161/54/6 51/130/6 56/124/6
f 168/116/5 162/131/5 52/132/5 58/117/5
f 162/131/3 164/126/3 54/129/3 52/132/3
f 145/72/1 153/66/1 51/130/1 53/121/1
f 194/133/5 138/134/5 70/135/5 190/136/5
f 216/137/6 137/138/6 69/139/6 212/140/6
f 113/39/1 121/50/1 67/141/1 61/142/1
f 130/143/3 132/144/3 62/145/3 68/146/3
f 136/147/5 130/143/5 68/146/5 66/148/5
f 134/149/6 129/56/6 67/141/6 64/150/6
f 132/144/6 133/151/6 63/152/6 62/145/6
f 144/153/6 134/149/6 64/150/6 112/154/6
f 131/55/5 135/155/5 65/156/5 61/142/5
f 238/157/5 136/147/5 66/148/5 234/158/5
f 193/159/6 139/160/6 84/161/6 183/162/6
f 143/163/5 140/164/5 83/165/5 105/166/5
f 197/167/6 171/168/6 82/169/6 182/170/6
f 175/171/5 172/172/5 81/173/5 104/174/5
f 102/175/5 74/176/5 77/177/5 107/29/5
f 99/178/2 106/41/2 76/179/2 71/180/2
f 99/178/5 71/180/5 73/181/5 101/182/5
f 127/183/5 123/184/5 74/176/5 102/175/5
f 159/185/5 155/186/5 75/187/5 103/188/5
f 195/189/6 156/190/6 80/191/6 181/192/6
f 191/193/6 124/194/6 79/195/6 180/196/6
f 177/101/6 76/179/6 78/197/6 179/198/6
f 178/106/4 185/199/4 72/200/4 77/177/4
f 180/196/6 79/195/6 72/200/6 185/199/6
f 215/201/5 141/202/5 98/203/5 205/204/5
f 237/205/6 142/206/6 97/207/6 227/208/6
f 219/209/5 173/210/5 96/211/5 204/212/5
f 241/213/6 174/214/6 95/215/6 226/216/6
f 224/217/6 88/218/6 91/219/6 229/220/6
f 222/28/4 229/220/4 91/219/4 86/221/4
f 221/33/6 85/222/6 87/223/6 223/224/6
f 235/225/6 125/226/6 88/218/6 224/217/6
f 239/227/6 157/228/6 89/229/6 225/230/6
f 217/231/5 158/232/5 94/233/5 203/234/5
f 213/235/5 126/236/5 93/237/5 202/238/5
f 199/239/5 90/240/5 92/241/5 201/242/5
f 199/239/2 206/89/2 85/222/2 90/240/2
f 202/238/5 93/237/5 86/221/5 207/102/5
f 149/73/5 159/185/5 103/188/5 39/74/5
f 117/40/5 127/183/5 102/175/5 30/26/5
f 10/31/5 99/178/5 101/182/5 29/38/5
f 10/31/2 11/30/2 106/41/2 99/178/2
f 30/26/5 102/175/5 107/29/5 13/13/5
f 167/119/5 175/171/5 104/174/5 57/120/5
f 135/155/5 143/163/5 105/166/5 65/156/5
f 139/160/6 144/153/6 112/154/6 84/161/6
f 171/168/6 176/122/6 111/125/6 82/169/6
f 156/190/6 160/70/6 110/71/6 80/191/6
f 124/194/6 128/44/6 109/23/6 79/195/6
f 76/179/6 106/41/6 108/43/6 78/197/6
f 77/177/4 72/200/4 100/24/4 107/29/4
f 79/195/6 109/23/6 100/24/6 72/200/6
f 84/161/6 112/154/6 128/44/6 124/194/6
f 65/156/5 105/166/5 127/183/5 117/40/5
f 205/204/5 98/203/5 126/236/5 213/235/5
f 227/208/6 97/207/6 125/226/6 235/225/6
f 183/162/6 84/161/6 124/194/6 191/193/6
f 105/166/5 83/165/5 123/184/5 127/183/5
f 18/25/1 19/20/1 121/50/1 113/39/1
f 190/136/5 70/135/5 120/94/5 192/93/5
f 212/140/6 69/139/6 119/86/6 214/85/6
f 68/146/3 62/145/3 114/48/3 122/52/3
f 66/148/5 68/146/5 122/52/5 118/37/5
f 64/150/6 67/141/6 121/50/6 116/45/6
f 62/145/6 63/152/6 115/49/6 114/48/6
f 112/154/6 64/150/6 116/45/6 128/44/6
f 61/142/5 65/156/5 117/40/5 113/39/5
f 234/158/5 66/148/5 118/37/5 236/36/5
f 80/191/6 110/71/6 144/153/6 139/160/6
f 39/74/5 103/188/5 143/163/5 135/155/5
f 225/230/6 89/229/6 142/206/6 237/205/6
f 203/234/5 94/233/5 141/202/5 215/201/5
f 103/188/5 75/187/5 140/164/5 143/163/5
f 181/192/6 80/191/6 139/160/6 193/159/6
f 232/76/5 40/64/5 136/147/5 238/157/5
f 33/58/5 39/74/5 135/155/5 131/55/5
f 110/71/6 38/67/6 134/149/6 144/153/6
f 36/61/6 37/69/6 133/151/6 132/144/6
f 38/67/6 34/57/6 129/56/6 134/149/6
f 40/64/5 35/62/5 130/143/5 136/147/5
f 35/62/3 36/61/3 132/144/3 130/143/3
f 210/84/6 49/83/6 137/138/6 216/137/6
f 188/80/5 50/79/5 138/134/5 194/133/5
f 61/142/1 67/141/1 129/56/1 131/55/1
f 82/169/6 111/125/6 160/70/6 156/190/6
f 57/120/5 104/174/5 159/185/5 149/73/5
f 204/212/5 96/211/5 158/232/5 217/231/5
f 226/216/6 95/215/6 157/228/6 239/227/6
f 182/170/6 82/169/6 156/190/6 195/189/6
f 104/174/5 81/173/5 155/186/5 159/185/5
f 33/58/1 34/57/1 153/66/1 145/72/1
f 211/110/6 60/109/6 152/82/6 218/81/6
f 189/114/5 59/113/5 151/78/5 196/77/5
f 233/118/5 58/117/5 150/63/5 240/75/5
f 53/121/5 57/120/5 149/73/5 145/72/5
f 111/125/6 56/124/6 148/65/6 160/70/6
f 54/129/6 55/128/6 147/68/6 146/60/6
f 56/124/6 51/130/6 153/66/6 148/65/6
f 58/117/5 52/132/5 154/59/5 150/63/5
f 52/132/3 54/129/3 146/60/3 154/59/3
f 78/197/6 108/43/6 176/122/6 171/168/6
f 29/38/5 101/182/5 175/171/5 167/119/5
f 223/224/6 87/223/6 174/214/6 241/213/6
f 201/242/5 92/241/5 173/210/5 219/209/5
f 101/182/5 73/181/5 172/172/5 175/171/5
f 179/198/6 78/197/6 171/168/6 197/167/6
f 22/51/3 23/47/3 164/126/3 162/131/3
f 31/34/5 22/51/5 162/131/5 168/116/5
f 27/42/6 20/2/6 161/54/6 166/123/6
f 23/47/6 25/46/6 165/127/6 164/126/6
f 108/43/6 27/42/6 166/123/6 176/122/6
f 17/1/5 29/38/5 167/119/5 163/53/5
f 230/35/5 31/34/5 168/116/5 242/115/5
f 186/100/5 45/99/5 169/112/5 198/111/5
f 208/92/6 47/91/6 170/108/6 220/107/6
f 53/121/1 51/130/1 161/54/1 163/53/1
f 73/181/5 186/100/5 198/111/5 172/172/5
f 47/91/6 179/198/6 197/167/6 170/108/6
f 81/173/5 189/114/5 196/77/5 155/186/5
f 60/109/6 182/170/6 195/189/6 152/82/6
f 75/187/5 188/80/5 194/133/5 140/164/5
f 49/83/6 181/192/6 193/159/6 137/138/6
f 83/165/5 190/136/5 192/93/5 123/184/5
f 69/139/6 183/162/6 191/193/6 119/86/6
f 48/87/6 180/196/6 185/199/6 44/104/6
f 43/105/4 44/104/4 185/199/4 178/106/4
f 42/90/6 177/101/6 179/198/6 47/91/6
f 119/86/6 191/193/6 180/196/6 48/87/6
f 152/82/6 195/189/6 181/192/6 49/83/6
f 170/108/6 197/167/6 182/170/6 60/109/6
f 137/138/6 193/159/6 183/162/6 69/139/6
f 140/164/5 194/133/5 190/136/5 83/165/5
f 172/172/5 198/111/5 189/114/5 81/173/5
f 74/176/5 187/96/5 178/106/5 77/177/5
f 71/180/2 76/179/2 177/101/2 184/97/2
f 71/180/5 184/97/5 186/100/5 73/181/5
f 123/184/5 192/93/5 187/96/5 74/176/5
f 155/186/5 196/77/5 188/80/5 75/187/5
f 87/223/6 208/92/6 220/107/6 174/214/6
f 45/99/5 201/242/5 219/209/5 169/112/5
f 95/215/6 211/110/6 218/81/6 157/228/6
f 59/113/5 204/212/5 217/231/5 151/78/5
f 89/229/6 210/84/6 216/137/6 142/206/6
f 50/79/5 203/234/5 215/201/5 138/134/5
f 97/207/6 212/140/6 214/85/6 125/226/6
f 70/135/5 205/204/5 213/235/5 120/94/5
f 46/95/5 202/238/5 207/102/5 43/105/5
f 41/98/2 42/90/2 206/89/2 199/239/2
f 41/98/5 199/239/5 201/242/5 45/99/5
f 120/94/5 213/235/5 202/238/5 46/95/5
f 151/78/5 217/231/5 203/234/5 50/79/5
f 169/112/5 219/209/5 204/212/5 59/113/5
f 138/134/5 215/201/5 205/204/5 70/135/5
f 142/206/6 216/137/6 212/140/6 97/207/6
f 174/214/6 220/107/6 211/110/6 95/215/6
f 88/218/6 209/88/6 200/103/6 91/219/6
f 86/221/4 91/219/4 200/103/4 207/102/4
f 85/222/6 206/89/6 208/92/6 87/223/6
f 125/226/6 214/85/6 209/88/6 88/218/6
f 157/228/6 218/81/6 210/84/6 89/229/6
f 92/241/5 230/35/5 242/115/5 173/210/5
f 25/46/6 223/224/6 241/213/6 165/127/6
f 96/211/5 233/118/5 240/75/5 158/232/5
f 55/128/6 226/216/6 239/227/6 147/68/6
f 94/233/5 232/76/5 238/157/5 141/202/5
f 37/69/6 225/230/6 237/205/6 133/151/6
f 98/203/5 234/158/5 236/36/5 126/236/5
f 63/152/6 227/208/6 235/225/6 115/49/6
f 147/68/6 239/227/6 225/230/6 37/69/6
f 115/49/6 235/225/6 224/217/6 26/21/6
f 12/6/6 221/33/6 223/224/6 25/46/6
f 14/18/4 15/22/4 229/220/4 222/28/4
f 26/21/6 224/217/6 229/220/6 15/22/6
f 165/127/6 241/213/6 226/216/6 55/128/6
f 133/151/6 237/205/6 227/208/6 63/152/6
f 141/202/5 238/157/5 234/158/5 98/203/5
f 173/210/5 242/115/5 233/118/5 96/211/5
f 158/232/5 240/75/5 232/76/5 94/233/5
f 126/236/5 236/36/5 231/27/5 93/237/5
f 90/240/5 228/32/5 230/35/5 92/241/5
f 90/240/2 85/222/2 221/33/2 228/32/2
f 93/237/5 231/27/5 222/28/5 86/221/5
